<?xml version="1.0" standalone="no"?>
<!DOCTYPE svg PUBLIC "-//W3C//DTD SVG 20010904//EN"
 "http://www.w3.org/TR/2001/REC-SVG-20010904/DTD/svg10.dtd">
<svg version="1.0" xmlns="http://www.w3.org/2000/svg"
 width="500.000000pt" height="500.000000pt" viewBox="0 0 500.000000 500.000000"
 preserveAspectRatio="xMidYMid meet">

<g transform="translate(0.000000,500.000000) scale(0.100000,-0.100000)"
fill="#000000" stroke="none">
<path d="M2530 4762 c-33 -16 -59 -65 -392 -727 -196 -390 -359 -714 -360
-719 -2 -5 -200 122 -440 282 -239 159 -449 293 -466 297 -63 13 -132 -46
-132 -114 0 -20 107 -244 314 -658 l313 -628 -337 -675 c-186 -372 -342 -692
-348 -711 -13 -49 5 -98 47 -126 68 -46 59 -50 578 295 263 175 484 321 490
326 9 5 112 -192 347 -662 232 -463 343 -676 362 -691 34 -27 109 -28 141 -3
11 9 94 163 183 342 89 179 243 483 342 677 l179 352 495 -329 c377 -252 502
-330 525 -330 66 0 119 53 119 120 0 20 -118 265 -345 720 -190 379 -345 697
-345 705 0 8 137 289 305 625 330 661 331 664 285 723 -27 34 -82 52 -119 39
-15 -6 -218 -136 -449 -291 -232 -155 -425 -281 -429 -281 -5 0 -169 322 -365
715 -307 612 -362 717 -388 730 -38 20 -67 19 -110 -3z m-946 -1835 l-87 -172
-168 335 c-92 184 -168 338 -168 343 -1 4 114 -69 254 -163 l255 -170 -86
-173z m2250 181 c-91 -183 -168 -335 -170 -337 -4 -4 -164 316 -164 329 0 8
486 340 497 340 2 0 -72 -150 -163 -332z m-940 -1183 c140 -93 256 -173 256
-178 0 -4 -129 -265 -286 -579 l-286 -573 -285 569 c-156 312 -283 572 -281
577 2 5 131 94 288 199 l284 189 27 -17 c15 -9 142 -93 283 -187z"/>
</g>
</svg>
